<svg width="1200" height="630" viewBox="0 0 1200 630" fill="none" xmlns="http://www.w3.org/2000/svg">
  <defs>
    <linearGradient id="bg" x1="90" y1="40" x2="1030" y2="640" gradientUnits="userSpaceOnUse">
      <stop stop-color="#182531"/>
      <stop offset="1" stop-color="#081017"/>
    </linearGradient>
    <radialGradient id="glow" cx="0" cy="0" r="1" gradientUnits="userSpaceOnUse" gradientTransform="translate(185 104) rotate(43.3322) scale(489.614 726.17)">
      <stop stop-color="#FFB25B" stop-opacity="0.34"/>
      <stop offset="1" stop-color="#FFB25B" stop-opacity="0"/>
    </radialGradient>
    <linearGradient id="panel" x1="629" y1="124" x2="1025" y2="520" gradientUnits="userSpaceOnUse">
      <stop stop-color="#172431"/>
      <stop offset="1" stop-color="#0C141C"/>
    </linearGradient>
    <linearGradient id="accent" x1="688" y1="176" x2="1006" y2="474" gradientUnits="userSpaceOnUse">
      <stop stop-color="#FFD283"/>
      <stop offset="1" stop-color="#F46B45"/>
    </linearGradient>
  </defs>
  <rect width="1200" height="630" rx="36" fill="url(#bg)"/>
  <rect width="1200" height="630" rx="36" fill="url(#glow)"/>
  <circle cx="1006" cy="120" r="162" fill="#0E1720" fill-opacity="0.5"/>
  <rect x="76" y="76" width="448" height="478" rx="28" fill="#0E1820" fill-opacity="0.72" stroke="#243646"/>
  <text x="112" y="142" fill="#F2B971" font-family="Avenir Next, Segoe UI, sans-serif" font-size="24" letter-spacing="5">LOCAL-FIRST TESTING WORKBENCH</text>
  <text x="112" y="232" fill="#F8F4EC" font-family="Avenir Next, Segoe UI, sans-serif" font-size="72" font-weight="700">Counterexample</text>
  <text x="112" y="306" fill="#F8F4EC" font-family="Avenir Next, Segoe UI, sans-serif" font-size="72" font-weight="700">Studio</text>
  <text x="112" y="374" fill="#C7D3DD" font-family="Menlo, SFMono-Regular, monospace" font-size="26">Find. Shrink. Reproduce.</text>
  <text x="112" y="430" fill="#C7D3DD" font-family="Avenir Next, Segoe UI, sans-serif" font-size="28">Property-based testing for pure JS and TS functions</text>
  <text x="112" y="468" fill="#C7D3DD" font-family="Avenir Next, Segoe UI, sans-serif" font-size="28">with deterministic reruns, trace-aware reports,</text>
  <text x="112" y="506" fill="#C7D3DD" font-family="Avenir Next, Segoe UI, sans-serif" font-size="28">a CLI, and a polished local UI.</text>
  <rect x="612" y="92" width="514" height="446" rx="32" fill="url(#panel)" stroke="#253848"/>
  <rect x="648" y="132" width="212" height="42" rx="21" fill="#101C25" stroke="#2A3D4C"/>
  <text x="680" y="159" fill="#EFD9B2" font-family="Menlo, SFMono-Regular, monospace" font-size="22">seed 87492311</text>
  <rect x="878" y="132" width="210" height="42" rx="21" fill="#101C25" stroke="#2A3D4C"/>
  <text x="910" y="159" fill="#EFD9B2" font-family="Menlo, SFMono-Regular, monospace" font-size="22">path 0:1:1</text>
  <path d="M726 214L824 274M922 214L824 274M824 274V358M824 358L736 438M824 358L924 438" stroke="url(#accent)" stroke-width="12" stroke-linecap="round"/>
  <circle cx="726" cy="214" r="22" fill="#15212B" stroke="#7FA7C9" stroke-width="8"/>
  <circle cx="922" cy="214" r="22" fill="#15212B" stroke="#7FA7C9" stroke-width="8"/>
  <circle cx="824" cy="274" r="26" fill="#15212B" stroke="#F8F4EC" stroke-width="8"/>
  <circle cx="824" cy="358" r="26" fill="#15212B" stroke="#F46B45" stroke-width="10"/>
  <circle cx="736" cy="438" r="20" fill="#15212B" stroke="#6B8AA5" stroke-width="8"/>
  <circle cx="924" cy="438" r="20" fill="#15212B" stroke="#FFD283" stroke-width="8"/>
  <rect x="648" y="470" width="440" height="34" rx="17" fill="#0E1820" stroke="#253848"/>
  <text x="674" y="493" fill="#C7D3DD" font-family="Menlo, SFMono-Regular, monospace" font-size="18">flatten(chunk(values, size)) === values</text>
  <rect x="708" y="316" width="232" height="72" rx="20" fill="#151F29" stroke="#F46B45" stroke-dasharray="9 9"/>
  <text x="734" y="344" fill="#ECA569" font-family="Menlo, SFMono-Regular, monospace" font-size="18">failing input</text>
  <text x="734" y="372" fill="#F8F4EC" font-family="Menlo, SFMono-Regular, monospace" font-size="18">values=[1,2,3], size=2</text>
</svg>
